PathFileType	4	(X/Y/Z)	Patient4_TMGait_0pt2_02_left_01.trc.trc
DataRate	CameraRate	NumFrames	NumMarkers	Units	OrigDataRate	OrigDataStartFrame	OrigNumFrames
43.076923076923	43.076923076923	4	33	mm	43.076923076923	1	       141
Frame#	Time	R.Midfoot.Superior			Sacral			L.Shoulder			Chest			R.Shoulder			Neck			R.ASIS			L.ASIS			R.Thigh.Superior			R.Thigh.Lateral			R.Thigh.Inferior			R.Patella			L.Thigh.Superior			L.Thigh.Lateral			L.Thigh.Inferior			L.Patella			L.Shank.Superior			L.Shank.Lateral			L.Shank.Inferior			R.Shank.Superior			R.Shank.Lateral			R.Shank.Inferior			R.Heel			R.Midfoot.Lateral			R.Toe			L.Heel			L.Midfoot.Lateral			L.Midfoot.Superior			L.Toe			L.Elbow			L.Wrist			R.Elbow			R.Wrist			
		X1	Y1	Z1	X2	Y2	Z2	X3	Y3	Z3	X4	Y4	Z4	X5	Y5	Z5	X6	Y6	Z6	X7	Y7	Z7	X8	Y8	Z8	X9	Y9	Z9	X10	Y10	Z10	X11	Y11	Z11	X12	Y12	Z12	X13	Y13	Z13	X14	Y14	Z14	X15	Y15	Z15	X16	Y16	Z16	X17	Y17	Z17	X18	Y18	Z18	X19	Y19	Z19	X20	Y20	Z20	X21	Y21	Z21	X22	Y22	Z22	X23	Y23	Z23	X24	Y24	Z24	X25	Y25	Z25	X26	Y26	Z26	X27	Y27	Z27	X28	Y28	Z28	X29	Y29	Z29	X30	Y30	Z30	X31	Y31	Z31	X32	Y32	Z32	X33	Y33	Z33	

1	1.850000000000	1101.712641061593	96.024977403308	555.148089276795	863.409720943436	992.306061005635	527.932957407725	1051.352345413011	1421.141509169194	350.202085490618	1141.794872572927	1355.565426019545	518.669766666480	1044.869003113284	1429.055216689505	685.737132659561	1019.283594798910	1484.767197477935	505.455379730312	1095.126046307417	931.414566146199	648.252802558669	1081.489186510629	953.577825332226	374.560471397584	1153.546078133724	737.645447581965	598.692393555253	1084.321928168607	616.196546683541	650.025831929474	1161.118610500990	576.740277751094	561.934278273147	1169.084867892300	483.386233891213	561.258161378817	1158.570444505951	761.256012703769	398.285047986319	1107.838012850335	636.872447402308	316.834513117141	1205.500093975174	568.842656147048	380.206388300117	1212.294984821308	479.797762252043	369.604383705571	1143.339540148037	416.968791284242	355.666949932725	1003.468287594007	380.930731782050	296.356740248257	984.310273741986	248.750522930952	344.353387126669	1130.997328630046	393.420396937453	564.077438886033	1053.800379930124	292.508400211789	625.409667548232	1079.118430059049	199.199504985094	553.967263751955	929.069258351587	42.527295844820	526.863338423489	1015.474237950086	37.136389047201	597.939820105515	1222.924189232219	45.669989124759	578.441114890999	788.772162844771	187.765741881776	367.403292733742	850.335679354609	143.243437257630	289.212228129571	954.952636958131	149.125187015654	316.185184459028	1032.742598312159	36.772475016516	289.092456578332	1104.801639856181	1066.946022631202	239.854379082707	1299.692432959093	889.290542533068	249.620148481389	984.246908690629	1079.777798674420	799.709830843112	1105.186077789532	845.957921562301	796.196452247435	
2	1.873214285714	1097.460973692126	95.910328838284	555.026021598417	861.684821507955	989.542482635836	533.257037846541	1045.437573638408	1418.408447825698	351.477772081387	1139.709272933225	1353.234900091845	517.929349243540	1046.913123155618	1426.724926738745	687.102182226199	1017.308504384226	1482.626301092312	507.161540189022	1095.579650669939	929.513174637990	649.049018117461	1077.092469579496	951.991665871678	375.874400826345	1153.931582381224	736.224887971098	598.532126509966	1086.409616379679	614.422033375389	650.455768985499	1162.357764963281	575.524689878698	561.332826805961	1170.513234072075	481.598433754300	560.406682675232	1158.181294966867	763.429862010857	399.442402310591	1110.149145517034	638.356046993872	317.902039881466	1210.283466617672	572.834669562625	380.670471792616	1219.672755248551	484.153784979871	369.425341063515	1152.467697350876	419.713454029870	355.240263722720	1012.980038787419	379.730724443830	298.074099206861	999.323472705769	246.774332617326	344.525749025230	1131.019480525285	391.711210219664	563.507161524351	1053.029484485593	291.635478072093	625.372552473834	1076.721095304811	198.262210907770	553.657132480077	924.647409488507	42.602183872821	526.939103655159	1010.999765682117	37.194917643953	597.953504107749	1218.493956060370	45.208465351887	578.405862620305	807.321469441429	177.905477122883	370.489972437276	868.398772854782	137.943621359186	290.078065701069	972.867567660624	147.438721194044	315.266771114612	1054.075045280074	39.553762138267	283.559376343738	1086.083077552996	1061.723496408687	244.486502625623	1255.438041017544	867.129707503337	252.608088726727	1002.129698070307	1076.487715707662	803.594277878084	1137.884526640370	853.326558622571	796.569734627438	
3	1.896428571429	1093.000963906520	95.810438726082	554.941528313354	860.001248953397	987.077624784998	538.681247910888	1039.393449942449	1415.926604325261	352.760198390179	1137.588160397447	1351.132165473842	517.092468113882	1049.077157245503	1424.680125798501	688.383038626128	1015.308936891582	1480.713454720118	508.835752390555	1095.995907719601	927.823427377506	649.845015034036	1072.580397524925	950.576640691967	377.201711405923	1154.014519180225	734.895955782303	598.464407572462	1088.054953916673	612.805774642456	651.050666085136	1163.102428289721	574.370019697486	560.907533165451	1171.362521320781	479.907336802608	559.798383729112	1157.361517845801	765.589928773961	400.378304002878	1111.767646675112	639.837301489210	318.786109489433	1214.315511174033	576.771817133204	380.796971919863	1226.319222894077	488.675134807969	368.948931013962	1161.275858751965	422.599371471292	354.557109493666	1022.735911940648	377.783639161747	299.507289977767	1015.559436568452	244.241529081891	344.360855770861	1130.530562611471	390.120488428449	563.140874677534	1051.760580622227	290.819769819015	625.484918540102	1073.966522156825	197.409549832261	553.471558149104	919.992970320868	42.670843413268	527.019788254887	1006.306501117560	37.244160605774	597.974870578809	1213.838656033057	44.784612972526	578.365118596799	828.033825076623	166.481280324477	373.258369091502	888.675509380046	131.318145069421	290.668229006825	992.744427174216	145.052497980209	314.029157238607	1077.787177418334	42.229802128697	277.854470294522	1066.047918512543	1057.081371916485	248.968045105308	1209.062236450249	846.216394306752	255.640643875852	1021.078300019196	1073.818353828363	807.374104230687	1172.263724182880	862.755255265768	796.331814695194	
4	1.919642857143	1088.420350227369	95.733495828529	554.908421443893	858.428153458077	985.124249128839	544.002407181502	1033.399941279000	1413.894395050872	353.999140518451	1135.496998934425	1349.428149601154	516.144375462415	1051.322345480933	1423.111060236807	689.484180929884	1013.350661415267	1479.192011324350	510.393906424805	1096.338874308703	926.491357973319	650.595985622798	1068.087546609751	949.456595519156	378.487352599275	1153.670833081363	733.743598916170	598.520023550701	1089.009012141235	611.473591035995	651.836334413450	1163.119455568156	573.344865824596	560.735753244362	1171.358920569466	478.422018915439	559.538600938856	1155.984675978575	767.640943376386	400.995327942664	1112.376731779211	641.261068241487	319.384254225946	1217.145578842122	580.462715065540	380.501322013140	1231.685202517380	493.228938253709	368.130622683607	1169.268441457047	425.563211788464	353.591159380498	1032.435909358315	374.956042285405	300.484633843023	1032.736448711882	241.138834138277	343.770924586825	1129.340473740592	388.758947427764	563.061612921746	1049.847258235483	290.116235249910	625.789447159783	1070.817943880102	196.707665705477	553.457597362088	915.196092530647	42.727543092087	527.103341133648	1001.490576225007	37.278931893010	598.006009099385	1209.051504742531	44.428379127251	578.318309857581	850.746737065105	153.575596430743	375.449788241540	911.076423800604	123.302341651421	290.862804899229	1014.414356283036	141.907845252341	312.448574976012	1103.678962045140	44.707629197442	272.255302729689	1044.999501834811	1053.491726513262	253.071524441543	1161.701857682183	827.942642041283	258.635643498115	1040.757235885300	1072.174236896579	810.823770697257	1207.479474467762	874.782433673175	795.201279618991	
